# xmcd
# Copyright (C) 1995-1998 Ti Kan
#
# Track frame offsets:
#       150
#       18938
#       31417
#       37516
#       58743
#       72363
#       89775
#       95225
#
# Disc length: 1639 seconds
#
# Revision: 0
# Processed by: cddbd v1.5.2PL0 Copyright (c) Steve Scherf et al.
# Submitted via: CD-Import v1.0
#
DISCID=66066508
DTITLE=Call Me Kat - I'm In A Paranoid - Where Are You?
DYEAR=2007
DGENRE=
TTITLE0=Bug In A Web
TTITLE1=Flower In The Night
TTITLE2=Town Hall
TTITLE3=Sweet You
TTITLE4=Sad Bird
TTITLE5=Not Awake
TTITLE6=Overwhelmed Interlude
TTITLE7=Overwhelmed
EXTD=
EXTT0=
EXTT1=
EXTT2=
EXTT3=
EXTT4=
EXTT5=
EXTT6=
EXTT7=
PLAYORDER=
